<svg xmlns="http://www.w3.org/2000/svg" viewBox="0 0 258.46 57.88"><defs><style>.cls-1{fill:#fff;}</style></defs><title>abimo-branco</title><g id="Camada_2" data-name="Camada 2"><g id="Camada_1-2" data-name="Camada 1"><g id="Camada_2-2" data-name="Camada 2"><g id="Layer_1" data-name="Layer 1"><path class="cls-1" d="M108,30.53a15,15,0,0,0-4.2-4,13.37,13.37,0,0,0,2.85-3.16,14.88,14.88,0,0,0,2-7.87,14.59,14.59,0,0,0-5.1-11.65C100.28,1.3,95.62,0,89.67,0H69.83a7.23,7.23,0,0,0-5.29,2.18,7.26,7.26,0,0,0-2.21,5.29V57.77H90.8c5.79-.28,10.46-1.82,13.9-4.65,3.75-3.28,5.65-7.87,5.65-13.64A15.52,15.52,0,0,0,108,30.53ZM76.67,18.83V13h10.8c3.55,0,4.69.61,5.06.9s1.17.88,1.17,3a3.42,3.42,0,0,1-1.17,3c-.5.41-2,1.06-4.9,1.06h-11ZM93.8,43a9.67,9.67,0,0,1-5.7,1.38H76.67V33.84H87.94c3.52,0,5.11.65,5.81,1.19,1,.8,1.52,2.14,1.52,4.09S94.79,42.31,93.8,43Z"/><path class="cls-1" d="M123.35,57.77h-7V7.48a7.26,7.26,0,0,1,2.21-5.29A7.23,7.23,0,0,1,123.8,0h7V50.3a7.5,7.5,0,0,1-7.5,7.47"/><path class="cls-1" d="M28.43,18.44,23.3,33.86H33.44l-5-15.41M55,57.77H41.48L37.61,46.59H19.15L15.69,57.77H0L18.8,4.83A7.07,7.07,0,0,1,25.85,0H35.93L52.06,44.4,56.9,57.72H55"/><path class="cls-1" d="M181.7,0a6.77,6.77,0,0,0-6.56,5.07l-8,30.88-8-30.88A6.78,6.78,0,0,0,152.58,0h-15V57.88H152.1V26.69l8,31.19h14.3l7.83-31v31H197V0Z"/><path class="cls-1" d="M230.21,12.83c-4.29,0-7.49,1.31-9.77,4s-3.54,6.9-3.54,12.27,1.18,9.43,3.52,12.1,5.5,4,9.79,4,7.4-1.32,9.8-4,3.67-6.93,3.67-12.09S242.43,19.8,240,16.83c-2.36-2.67-5.56-4-9.76-4m0,45a32,32,0,0,1-13.31-2.62,24.31,24.31,0,0,1-7.37-5.13c-4.92-5.11-7.44-12.16-7.44-21S204.6,13.22,209.5,8a26.14,26.14,0,0,1,7.39-5.18A31.11,31.11,0,0,1,230.21.11c8.34,0,15.28,2.65,20.65,7.86,5.06,5.36,7.6,12.45,7.6,21.15s-2.54,15.75-7.56,21c-5.19,5.15-12.14,7.75-20.69,7.75"/></g></g></g></g></svg>