<svg xmlns="http://www.w3.org/2000/svg" viewBox="0 0 258.46 57.87"><defs><style>.cls-1{fill:#005d96;}</style></defs><title>logo-abimo.svg</title><g id="Camada_2" data-name="Camada 2"><g id="Layer_1" data-name="Layer 1"><path class="cls-1" d="M108,30.52a15.05,15.05,0,0,0-4.2-4,13.37,13.37,0,0,0,2.85-3.16,14.88,14.88,0,0,0,2-7.87,14.59,14.59,0,0,0-5.1-11.65C100.28,1.29,95.62,0,89.67,0H69.83a7.23,7.23,0,0,0-5.29,2.18,7.26,7.26,0,0,0-2.21,5.29V57.76H88.88c.66,0,1.29,0,1.92,0,5.79-.28,10.46-1.82,13.9-4.65,3.75-3.28,5.65-7.87,5.65-13.64A15.52,15.52,0,0,0,108,30.52ZM76.67,18.82V13H87.47c3.55,0,4.69.61,5.06.9s1.17.88,1.17,3c0,1.87-.67,2.59-1.17,3s-2,1.06-4.9,1.06H76.67ZM93.8,43a9.67,9.67,0,0,1-5.7,1.38H76.67V33.83H87.94c3.52,0,5.11.65,5.81,1.19,1,.8,1.52,2.14,1.52,4.09S94.79,42.3,93.8,43Z"/><path class="cls-1" d="M123.35,57.76h-7V7.47a7.26,7.26,0,0,1,2.21-5.29A7.23,7.23,0,0,1,123.8,0h7V50.29a7.5,7.5,0,0,1-7.5,7.47"/><path class="cls-1" d="M28.43,18.43,23.3,33.85H33.44l-5-15.41M55,57.76H41.48L37.61,46.58H19.15L15.69,57.76H0L18.8,4.82A7.07,7.07,0,0,1,25.85,0H35.93L52.06,44.39,56.9,57.71c-.63,0-1.27,0-1.92,0"/><path class="cls-1" d="M181.7,0a6.77,6.77,0,0,0-6.56,5.07l-8,30.88-8-30.88A6.78,6.78,0,0,0,152.58,0h-15V57.87H152.1V26.68l8,31.19h14.3l7.83-31v31H197V0Z"/><path class="cls-1" d="M230.21,12.82c-4.29,0-7.49,1.31-9.77,4s-3.54,6.9-3.54,12.27,1.18,9.43,3.52,12.1,5.5,4,9.79,4,7.4-1.32,9.8-4,3.67-6.93,3.67-12.09-1.25-9.31-3.71-12.28c-2.36-2.67-5.56-4-9.76-4m0,45A32,32,0,0,1,216.9,55.2a24.31,24.31,0,0,1-7.37-5.13c-4.92-5.11-7.44-12.16-7.44-21S204.6,13.21,209.5,8a26.14,26.14,0,0,1,7.39-5.18A31.11,31.11,0,0,1,230.21.1c8.34,0,15.28,2.65,20.65,7.86,5.06,5.36,7.6,12.45,7.6,21.15s-2.54,15.75-7.56,21c-5.19,5.15-12.14,7.75-20.69,7.75"/></g></g></svg>