<svg xmlns="http://www.w3.org/2000/svg" width="433" height="441" viewBox="0 0 433 441">
  <metadata><?xpacket begin="﻿" id="W5M0MpCehiHzreSzNTczkc9d"?>
<x:xmpmeta xmlns:x="adobe:ns:meta/" x:xmptk="Adobe XMP Core 5.6-c138 79.159824, 2016/09/14-01:09:01        ">
   <rdf:RDF xmlns:rdf="http://www.w3.org/1999/02/22-rdf-syntax-ns#">
      <rdf:Description rdf:about=""/>
   </rdf:RDF>
</x:xmpmeta>
                                                                                                    
                                                                                                    
                                                                                                    
                                                                                                    
                                                                                                    
                                                                                                    
                                                                                                    
                                                                                                    
                                                                                                    
                                                                                                    
                                                                                                    
                                                                                                    
                                                                                                    
                                                                                                    
                                                                                                    
                                                                                                    
                                                                                                    
                                                                                                    
                                                                                                    
                                                                                                    
                           
<?xpacket end="w"?></metadata>
<defs>
    <style>
      .cls-1 {
        fill: #e2df1b;
        fill-rule: evenodd;
      }
    </style>
  </defs>
  <path id="Forma_1" data-name="Forma 1" class="cls-1" d="M384.983,433.258c-32.981,0-57.539,10.019-75.09,30.647-18.026,21.179-27.17,52.714-27.17,93.739,0,40.946,9.095,72.047,27.026,92.433,17.68,20.775,42.238,30.8,75.234,30.8,32.262,0,56.885-10.083,75.259-30.832,18.675-21.776,28.21-52.922,28.21-92.4,0-39.557-9.584-71.141-28.479-93.864-18.121-20.431-42.739-30.522-74.99-30.522m0,343.738c-38.6,0-72.778-6.7-102.26-19.978a186.77,186.77,0,0,1-56.589-39.168C188.3,678.769,169,624.9,169,557.644c0-67.207,19.279-121.426,56.935-161.157a200.8,200.8,0,0,1,56.79-39.561C312.683,343,346.847,336,384.983,336c64.035,0,117.41,20.213,158.638,60.079C582.493,437,602,491.219,602,557.644c0,66.5-19.54,120.37-58.073,160.112C504.09,757.135,450.685,777,384.983,777" transform="translate(-169 -336)"/>
</svg>
